<svg width="24" height="24" viewBox="0 0 24 24" fill="none" xmlns="http://www.w3.org/2000/svg">
<path d="M16.2305 2.76172C17.566 2.31207 18.9698 2.46051 20.1455 3.0625C21.321 3.66443 22.2614 4.71586 22.6758 6.06445C23.0885 7.40768 22.9912 9.08741 22.0156 10.9668C21.1118 12.705 19.4294 14.7889 17.5947 16.7832C15.7681 18.7686 13.8196 20.6337 12.4092 21.9326C12.3544 21.9809 12.284 22.0078 12.2109 22.0078C12.1378 22.0078 12.0674 21.981 12.0127 21.9326C10.5947 20.6341 8.64141 18.769 6.8125 16.7832C4.97597 14.7891 3.29443 12.7049 2.39062 10.9668C1.41502 9.0874 1.31778 7.40768 1.73047 6.06445C2.14489 4.71585 3.08519 3.66442 4.26074 3.0625C5.43646 2.46051 6.84023 2.31207 8.17578 2.76172C9.5057 3.20961 10.8083 4.26541 11.7568 6.14355L12.2031 7.02734L12.6494 6.14355C13.598 4.26539 14.9005 3.2096 16.2305 2.76172Z" stroke="#3888DD"/>
</svg>
