<svg width="82" height="52" viewBox="0 0 82 52" fill="none" xmlns="http://www.w3.org/2000/svg">
<path d="M35.35 48.53C35.35 48.53 35.35 48.6 35.35 48.63C35.35 48.66 35.35 48.69 35.35 48.73C35.35 48.81 35.35 48.89 35.37 48.96C35.38 49.03 35.39 49.09 35.41 49.16C35.43 49.22 35.44 49.29 35.45 49.36C35.46 49.43 35.47 49.5 35.47 49.59C35.47 49.78 35.43 49.94 35.35 50.07C35.27 50.19 35.16 50.29 35.02 50.37C34.88 50.45 34.7 50.5 34.5 50.53C34.3 50.56 34.07 50.58 33.82 50.58H33.66C33.22 50.58 32.92 50.46 32.74 50.22C32.56 49.98 32.47 49.65 32.47 49.25C32.47 48.96 32.5 48.67 32.57 48.38C32.63 48.09 32.71 47.81 32.78 47.54C32.86 47.27 32.93 46.99 32.99 46.73C33.05 46.46 33.09 46.2 33.09 45.94C33.09 45.75 33.06 45.55 33 45.34C32.94 45.13 32.87 44.9 32.8 44.68C32.73 44.46 32.66 44.24 32.6 44.03C32.54 43.82 32.51 43.62 32.51 43.43C32.51 43.27 32.54 43.11 32.61 42.93C32.68 42.75 32.77 42.59 32.89 42.43C33.01 42.28 33.15 42.15 33.3 42.05C33.45 41.95 33.62 41.9 33.79 41.9C34.02 41.9 34.24 41.92 34.44 41.95C34.65 41.98 34.83 42.04 34.99 42.14C35.15 42.23 35.27 42.36 35.36 42.53C35.45 42.7 35.5 42.92 35.5 43.2C35.5 43.35 35.5 43.52 35.48 43.71C35.47 43.9 35.45 44.09 35.44 44.29C35.43 44.49 35.41 44.68 35.4 44.87C35.39 45.06 35.38 45.22 35.38 45.37C35.38 45.41 35.38 45.45 35.38 45.51C35.38 45.57 35.39 45.63 35.4 45.69C35.41 45.75 35.43 45.8 35.46 45.84C35.49 45.88 35.53 45.9 35.58 45.9C35.7 45.9 35.83 45.83 35.98 45.7C36.12 45.56 36.26 45.41 36.4 45.25C36.54 45.08 36.66 44.92 36.78 44.76C36.9 44.6 37 44.5 37.07 44.46C37.17 44.4 37.27 44.36 37.39 44.34C37.5 44.32 37.61 44.31 37.73 44.31C38.12 44.31 38.42 44.43 38.64 44.66C38.86 44.89 38.97 45.21 38.97 45.59C38.97 45.85 38.92 46.1 38.82 46.33C38.72 46.56 38.58 46.76 38.41 46.93C38.24 47.1 38.04 47.24 37.81 47.34C37.58 47.44 37.34 47.51 37.08 47.53C37.14 47.7 37.23 47.83 37.35 47.91C37.47 47.99 37.62 48.05 37.77 48.09C37.92 48.13 38.09 48.17 38.26 48.2C38.43 48.23 38.58 48.29 38.72 48.37C38.86 48.45 38.97 48.57 39.06 48.73C39.15 48.89 39.19 49.11 39.19 49.4C39.19 49.56 39.15 49.73 39.07 49.89C38.99 50.05 38.88 50.19 38.75 50.32C38.62 50.45 38.47 50.55 38.3 50.64C38.13 50.72 37.95 50.76 37.78 50.76H37.67C37.67 50.76 37.59 50.76 37.56 50.76C37.21 50.71 36.95 50.62 36.77 50.49C36.59 50.36 36.46 50.22 36.38 50.06C36.3 49.9 36.25 49.73 36.22 49.55C36.2 49.37 36.18 49.21 36.15 49.06C36.13 48.91 36.08 48.79 36.01 48.7C35.94 48.61 35.81 48.56 35.62 48.56H35.36L35.35 48.53Z" fill="white"/>
<path d="M39.44 47.12C39.44 46.53 39.52 46.01 39.68 45.55C39.84 45.09 40.06 44.7 40.35 44.38C40.64 44.06 40.97 43.81 41.36 43.64C41.75 43.47 42.17 43.38 42.63 43.38C43.09 43.38 43.48 43.45 43.85 43.6C44.22 43.75 44.53 43.94 44.8 44.17C45.07 44.4 45.27 44.66 45.42 44.95C45.57 45.24 45.65 45.53 45.65 45.81C45.65 46.15 45.58 46.42 45.45 46.63C45.31 46.84 45.14 47.01 44.92 47.13C44.71 47.25 44.47 47.33 44.21 47.38C43.95 47.43 43.7 47.45 43.46 47.45C43.31 47.45 43.18 47.43 43.06 47.39C42.94 47.35 42.83 47.31 42.73 47.27C42.62 47.23 42.53 47.2 42.43 47.19C42.33 47.18 42.25 47.19 42.15 47.25C42.05 47.31 42 47.39 42 47.51C42 47.96 42.41 48.18 43.24 48.18C43.29 48.18 43.35 48.18 43.43 48.18C43.51 48.18 43.56 48.18 43.6 48.18C43.81 48.18 44.02 48.14 44.21 48.07C44.4 48.01 44.58 47.94 44.75 47.87C44.92 47.8 45.07 47.73 45.22 47.67C45.37 47.61 45.51 47.58 45.64 47.58C45.76 47.58 45.88 47.62 45.98 47.69C46.09 47.77 46.18 47.86 46.26 47.98C46.34 48.1 46.4 48.23 46.45 48.38C46.5 48.52 46.52 48.67 46.52 48.81C46.52 49.07 46.44 49.31 46.28 49.54C46.12 49.77 45.9 49.96 45.61 50.13C45.32 50.3 44.99 50.42 44.61 50.52C44.23 50.62 43.82 50.66 43.37 50.66C42.75 50.66 42.16 50.57 41.61 50.39C41.06 50.21 40.63 49.96 40.3 49.64C40.02 49.37 39.81 49.01 39.66 48.58C39.51 48.14 39.43 47.65 39.43 47.12H39.44ZM42.01 45.44C42.01 45.58 42.08 45.71 42.21 45.81C42.35 45.92 42.51 45.97 42.69 45.97C42.79 45.97 42.89 45.95 42.97 45.92C43.06 45.89 43.14 45.85 43.22 45.8C43.3 45.75 43.36 45.69 43.4 45.63C43.44 45.57 43.46 45.5 43.46 45.43C43.46 45.31 43.39 45.2 43.25 45.12C43.11 45.03 42.93 44.99 42.71 44.99C42.49 44.99 42.32 45.03 42.2 45.11C42.07 45.19 42.01 45.3 42.01 45.44Z" fill="white"/>
<path d="M49.6 44.98C49.6 44.47 49.75 44.08 50.04 43.83C50.33 43.58 50.73 43.46 51.22 43.46C51.43 43.46 51.62 43.51 51.79 43.6C51.96 43.7 52.11 43.82 52.23 43.97C52.35 44.12 52.45 44.29 52.51 44.48C52.58 44.67 52.61 44.87 52.61 45.06C52.61 45.23 52.59 45.4 52.55 45.56C52.51 45.72 52.46 45.88 52.41 46.04C52.36 46.2 52.31 46.36 52.27 46.53C52.23 46.7 52.21 46.86 52.21 47.03C52.21 47.15 52.23 47.28 52.27 47.41C52.31 47.54 52.37 47.66 52.45 47.77C52.53 47.88 52.63 47.97 52.75 48.04C52.87 48.11 53.01 48.15 53.16 48.15C53.34 48.15 53.49 48.1 53.62 48.01C53.74 47.91 53.85 47.8 53.93 47.66C54.01 47.52 54.07 47.37 54.11 47.21C54.15 47.05 54.16 46.9 54.16 46.77C54.16 46.61 54.14 46.44 54.12 46.28C54.09 46.12 54.06 45.95 54.02 45.79C53.98 45.63 53.95 45.47 53.92 45.31C53.89 45.15 53.88 44.99 53.88 44.82C53.88 44.59 53.93 44.38 54.01 44.18C54.1 43.98 54.22 43.8 54.37 43.65C54.52 43.5 54.69 43.38 54.9 43.3C55.1 43.21 55.31 43.17 55.53 43.17C55.78 43.17 56 43.22 56.18 43.31C56.36 43.41 56.51 43.54 56.63 43.69C56.75 43.85 56.84 44.04 56.9 44.24C56.96 44.45 56.99 44.67 56.99 44.89C56.99 45.19 56.95 45.48 56.88 45.76C56.81 46.04 56.77 46.33 56.77 46.62C56.77 46.79 56.79 46.96 56.83 47.13C56.87 47.3 56.91 47.46 56.96 47.63C57.01 47.79 57.05 47.96 57.09 48.12C57.13 48.28 57.15 48.45 57.15 48.62C57.15 48.98 57.11 49.31 57.02 49.59C56.94 49.88 56.82 50.12 56.66 50.31C56.5 50.5 56.33 50.66 56.12 50.76C55.91 50.86 55.69 50.92 55.46 50.92C55.26 50.92 55.1 50.9 54.98 50.86C54.86 50.82 54.76 50.76 54.7 50.69C54.63 50.62 54.58 50.55 54.54 50.48C54.5 50.41 54.47 50.33 54.44 50.27C54.41 50.2 54.37 50.15 54.33 50.1C54.29 50.06 54.22 50.04 54.14 50.04C54.05 50.04 53.96 50.08 53.87 50.16C53.78 50.24 53.68 50.33 53.54 50.43C53.4 50.53 53.23 50.62 53.02 50.7C52.8 50.78 52.51 50.82 52.16 50.82C51.38 50.82 50.78 50.63 50.36 50.24C49.94 49.85 49.72 49.26 49.72 48.47C49.72 48.15 49.74 47.84 49.8 47.53C49.85 47.22 49.87 46.91 49.87 46.6C49.87 46.46 49.86 46.32 49.83 46.19C49.81 46.06 49.78 45.93 49.75 45.79C49.72 45.65 49.69 45.52 49.66 45.39C49.63 45.26 49.62 45.12 49.62 44.99L49.6 44.98Z" fill="white"/>
<path d="M60.13 43.2C60.66 43.2 61.16 43.29 61.65 43.48C62.14 43.67 62.57 43.91 62.94 44.22C63.32 44.53 63.61 44.88 63.84 45.28C64.07 45.68 64.18 46.1 64.18 46.53C64.18 46.82 64.13 47.11 64.03 47.38C63.93 47.65 63.79 47.9 63.61 48.11C63.44 48.32 63.24 48.49 63.01 48.62C62.79 48.75 62.56 48.81 62.32 48.81C62.21 48.81 62.09 48.8 61.98 48.77C61.87 48.74 61.76 48.71 61.66 48.68C61.56 48.65 61.46 48.62 61.36 48.59C61.26 48.56 61.16 48.55 61.06 48.55C60.92 48.55 60.8 48.58 60.72 48.65C60.64 48.72 60.59 48.8 60.59 48.92C60.59 48.99 60.6 49.06 60.63 49.11C60.66 49.17 60.69 49.23 60.73 49.31C60.77 49.39 60.8 49.47 60.83 49.57C60.86 49.67 60.87 49.8 60.87 49.97C60.87 50.23 60.83 50.46 60.75 50.68C60.67 50.9 60.55 51.08 60.4 51.24C60.25 51.4 60.07 51.51 59.86 51.6C59.65 51.69 59.42 51.73 59.17 51.73C58.94 51.73 58.73 51.69 58.54 51.61C58.35 51.53 58.19 51.42 58.05 51.28C57.91 51.14 57.8 50.97 57.73 50.78C57.65 50.59 57.62 50.37 57.62 50.14C57.62 49.95 57.64 49.76 57.69 49.56C57.74 49.37 57.79 49.18 57.84 48.98C57.89 48.78 57.94 48.6 57.98 48.41C58.02 48.22 58.04 48.04 58.04 47.86C58.04 47.64 58.01 47.44 57.94 47.27C57.87 47.1 57.8 46.93 57.72 46.76C57.64 46.59 57.57 46.41 57.5 46.21C57.43 46.01 57.4 45.78 57.4 45.52C57.4 45.18 57.47 44.86 57.6 44.58C57.73 44.29 57.92 44.05 58.16 43.85C58.4 43.65 58.68 43.49 59.02 43.37C59.35 43.26 59.72 43.2 60.13 43.2ZM60.65 46.62C60.74 46.62 60.82 46.6 60.89 46.55C60.97 46.5 61.03 46.44 61.09 46.36C61.15 46.28 61.2 46.19 61.23 46.09C61.27 45.99 61.28 45.88 61.28 45.77C61.28 45.61 61.24 45.47 61.17 45.35C61.09 45.24 61 45.18 60.89 45.18C60.82 45.18 60.75 45.21 60.68 45.26C60.61 45.31 60.54 45.38 60.49 45.47C60.43 45.56 60.39 45.66 60.36 45.77C60.33 45.88 60.31 46 60.31 46.12C60.31 46.44 60.42 46.6 60.65 46.6V46.62Z" fill="white"/>
<path d="M41.24 0.320007C37.23 0.320007 33.33 0.820008 29.68 1.26001C25.59 1.75001 21.73 2.48001 18.3 3.43001C14.09 4.59001 10.64 6.51001 7.8 8.21001C3.59 10.74 0.889999 13.61 0.889999 16.87C0.889999 20.13 3.67999 22.84 7.88999 25.37C10.72 27.07 14.2 28.72 18.41 29.88C21.84 30.83 25.64 31.5 29.73 31.99C33.38 32.42 37.23 32.17 41.24 32.17C45.25 32.17 49.1 32.45 52.75 32.02C56.84 31.53 60.88 31.71 64.31 30.77C68.52 29.61 71.96 27.42 74.79 25.72C79 23.19 81.11 20.13 81.11 16.87C81.11 13.61 78.91 10.7 74.7 8.17001C71.87 6.47001 68.3 4.94001 64.08 3.78001C60.65 2.83001 56.76 2.78001 52.67 2.29001C49.02 1.86001 45.23 0.330008 41.23 0.330008L41.24 0.320007ZM27.03 23.43C20.63 19.03 19.15 19.14 17.44 11.56C16.36 6.77001 23.37 10.27 25.52 14.7C27.67 19.14 30.94 26.13 27.02 23.43H27.03ZM44.88 23.43C38.48 19.03 37 19.14 35.29 11.56C34.21 6.77001 41.22 10.27 43.37 14.7C45.52 19.14 48.79 26.13 44.87 23.43H44.88ZM62.73 23.43C56.33 19.03 54.85 19.14 53.14 11.56C52.06 6.77001 59.07 10.27 61.22 14.7C63.37 19.14 66.64 26.13 62.72 23.43H62.73Z" fill="white"/>
<path d="M19.57 42.02C20 42.02 20.44 42.07 20.88 42.15C21.32 42.23 21.73 42.38 22.09 42.58C22.45 42.78 22.75 43.03 22.97 43.34C23.19 43.65 23.3 44.02 23.28 44.46C23.28 44.7 23.23 44.9 23.15 45.07C23.07 45.24 22.98 45.39 22.88 45.51C22.78 45.63 22.7 45.73 22.62 45.81C22.54 45.89 22.51 45.97 22.51 46.03C22.51 46.09 22.58 46.15 22.72 46.22C22.86 46.29 23.02 46.38 23.2 46.49C23.37 46.6 23.53 46.75 23.68 46.93C23.82 47.11 23.89 47.33 23.89 47.6C23.89 48.05 23.76 48.42 23.5 48.72C23.24 49.02 22.9 49.26 22.48 49.44C22.06 49.62 21.58 49.75 21.04 49.83C20.5 49.91 19.94 49.95 19.36 49.95C19.17 49.95 18.94 49.93 18.66 49.89C18.38 49.85 18.11 49.78 17.84 49.68C17.58 49.58 17.35 49.44 17.16 49.26C16.97 49.09 16.88 48.87 16.88 48.6C16.88 48.33 16.92 48.11 16.99 47.9C17.06 47.69 17.14 47.47 17.23 47.23C17.32 46.99 17.4 46.72 17.47 46.42C17.54 46.12 17.58 45.74 17.58 45.3C17.58 45.04 17.56 44.81 17.52 44.59C17.48 44.38 17.43 44.18 17.38 44.01C17.33 43.84 17.28 43.67 17.23 43.52C17.18 43.37 17.16 43.22 17.16 43.07C17.16 42.94 17.21 42.81 17.3 42.69C17.39 42.57 17.54 42.45 17.74 42.34C17.94 42.24 18.19 42.15 18.49 42.09C18.79 42.03 19.15 42 19.57 42V42.02ZM20.26 43.85C20.15 43.85 20.06 43.87 19.99 43.92C19.92 43.97 19.85 44.02 19.81 44.09C19.76 44.15 19.73 44.22 19.71 44.29C19.69 44.36 19.68 44.42 19.68 44.47C19.68 44.71 19.72 44.9 19.79 45.02C19.86 45.15 19.98 45.21 20.15 45.21C20.23 45.21 20.31 45.19 20.41 45.16C20.5 45.13 20.59 45.08 20.66 45.02C20.73 44.96 20.8 44.88 20.85 44.78C20.9 44.68 20.93 44.57 20.93 44.44C20.93 44.36 20.91 44.29 20.87 44.22C20.83 44.15 20.78 44.09 20.72 44.04C20.66 43.99 20.58 43.94 20.51 43.91C20.43 43.88 20.35 43.86 20.27 43.86L20.26 43.85ZM19.72 47.08C19.72 47.24 19.74 47.36 19.78 47.44C19.82 47.51 19.87 47.55 19.92 47.55C19.98 47.55 20.07 47.55 20.17 47.54C20.27 47.54 20.37 47.52 20.46 47.49C20.56 47.46 20.64 47.42 20.71 47.37C20.78 47.32 20.81 47.25 20.81 47.16C20.81 47.05 20.78 46.95 20.71 46.88C20.65 46.81 20.57 46.75 20.48 46.71C20.39 46.67 20.29 46.64 20.19 46.62C20.09 46.6 19.99 46.6 19.91 46.6C19.83 46.6 19.77 46.62 19.76 46.67C19.74 46.72 19.73 46.85 19.72 47.08Z" fill="white"/>
<path d="M28.53 48.98C28.53 48.9 28.51 48.84 28.48 48.81C28.44 48.77 28.4 48.76 28.34 48.76C28.26 48.76 28.16 48.82 28.05 48.95C27.93 49.08 27.78 49.21 27.6 49.37C27.42 49.53 27.2 49.66 26.94 49.79C26.68 49.92 26.37 49.98 26.01 49.98C25.73 49.98 25.48 49.95 25.24 49.89C25.01 49.83 24.81 49.73 24.64 49.58C24.47 49.43 24.34 49.24 24.25 48.99C24.16 48.74 24.11 48.44 24.11 48.08C24.11 47.84 24.15 47.62 24.23 47.42C24.31 47.22 24.42 47.04 24.56 46.88C24.7 46.72 24.86 46.57 25.04 46.43C25.22 46.29 25.42 46.17 25.63 46.06C25.84 45.95 26.1 45.85 26.41 45.78C26.72 45.71 27.02 45.63 27.32 45.56C27.62 45.49 27.87 45.41 28.08 45.33C28.29 45.25 28.4 45.15 28.4 45.03C28.4 44.97 28.38 44.91 28.34 44.86C28.3 44.81 28.24 44.77 28.18 44.74C28.12 44.71 28.05 44.69 27.98 44.68C27.91 44.67 27.84 44.66 27.79 44.66C27.58 44.66 27.38 44.69 27.19 44.76C27 44.82 26.81 44.89 26.62 44.97C26.43 45.05 26.24 45.11 26.05 45.18C25.86 45.24 25.66 45.28 25.46 45.28C25.11 45.28 24.85 45.2 24.69 45.05C24.53 44.9 24.45 44.63 24.45 44.24C24.45 44.02 24.51 43.82 24.63 43.66C24.75 43.49 24.91 43.34 25.12 43.22C25.32 43.09 25.55 42.98 25.81 42.89C26.06 42.8 26.32 42.73 26.58 42.68C26.84 42.63 27.1 42.59 27.35 42.56C27.6 42.54 27.82 42.52 28 42.52C28.58 42.52 29.08 42.58 29.48 42.7C29.88 42.82 30.2 42.98 30.44 43.18C30.68 43.38 30.86 43.61 30.96 43.87C31.07 44.13 31.12 44.4 31.12 44.69C31.12 44.98 31.09 45.21 31.04 45.44C30.99 45.67 30.93 45.88 30.86 46.08C30.8 46.27 30.74 46.45 30.68 46.6C30.63 46.75 30.6 46.89 30.6 47C30.6 47.15 30.64 47.29 30.71 47.41C30.78 47.53 30.86 47.66 30.94 47.79C31.02 47.92 31.1 48.07 31.17 48.22C31.24 48.38 31.28 48.56 31.28 48.78C31.28 49.23 31.14 49.59 30.87 49.87C30.59 50.15 30.2 50.29 29.7 50.29C29.53 50.29 29.36 50.28 29.21 50.25C29.05 50.22 28.92 50.18 28.8 50.13C28.68 50.08 28.59 50.01 28.52 49.93C28.45 49.85 28.41 49.77 28.41 49.67C28.41 49.52 28.43 49.39 28.48 49.29C28.53 49.19 28.56 49.09 28.56 49.01L28.53 48.98ZM28.17 46.97C28.13 46.79 28.05 46.69 27.92 46.65C27.79 46.61 27.65 46.62 27.5 46.65C27.41 46.67 27.31 46.7 27.21 46.74C27.11 46.78 27.02 46.82 26.94 46.88C26.86 46.94 26.8 47.01 26.76 47.1C26.72 47.19 26.71 47.29 26.73 47.4C26.74 47.47 26.78 47.52 26.84 47.56C26.9 47.6 26.97 47.62 27.04 47.63C27.11 47.64 27.19 47.64 27.27 47.63C27.35 47.63 27.41 47.62 27.46 47.61C27.53 47.6 27.61 47.57 27.7 47.53C27.79 47.49 27.87 47.45 27.95 47.4C28.03 47.35 28.09 47.28 28.13 47.21C28.18 47.13 28.19 47.05 28.17 46.96V46.97Z" fill="white"/>
</svg>
