<svg width="90" height="90" viewBox="0 0 90 90" fill="none" xmlns="http://www.w3.org/2000/svg">
<path d="M90 0H0V90H90V0Z" fill="white"/>
<path d="M26.586 60.0071C26.973 60.0071 27.36 60.0431 27.765 60.1241C28.17 60.2051 28.53 60.3311 28.854 60.5111C29.178 60.6911 29.448 60.9161 29.646 61.1951C29.844 61.4741 29.943 61.8071 29.916 62.2031C29.916 62.4191 29.871 62.5991 29.799 62.7521C29.727 62.9051 29.646 63.0401 29.556 63.1481C29.466 63.2561 29.394 63.3461 29.322 63.4181C29.259 63.4901 29.223 63.5621 29.223 63.6161C29.223 63.6701 29.286 63.7241 29.412 63.7871C29.538 63.8501 29.682 63.9311 29.844 64.0301C29.997 64.1291 30.141 64.2641 30.267 64.4261C30.393 64.5881 30.456 64.7861 30.456 65.0291C30.456 65.4341 30.339 65.7671 30.114 66.0371C29.88 66.3071 29.583 66.5231 29.205 66.6851C28.827 66.8471 28.395 66.9641 27.909 67.0361C27.423 67.1081 26.919 67.1441 26.397 67.1441C26.226 67.1441 26.019 67.1261 25.767 67.0901C25.515 67.0541 25.272 66.9911 25.029 66.9011C24.795 66.8111 24.588 66.6851 24.417 66.5231C24.246 66.3701 24.165 66.1721 24.165 65.9291C24.165 65.6861 24.201 65.4881 24.264 65.2991C24.327 65.1101 24.399 64.9121 24.48 64.6961C24.561 64.4801 24.633 64.2461 24.696 63.9671C24.759 63.6971 24.795 63.3641 24.795 62.9591C24.795 62.7251 24.777 62.5181 24.741 62.3291C24.705 62.1401 24.66 61.9601 24.615 61.8071C24.57 61.6541 24.525 61.5011 24.48 61.3661C24.435 61.2311 24.417 61.0961 24.417 60.9701C24.417 60.8531 24.462 60.7361 24.543 60.6281C24.624 60.5201 24.759 60.4121 24.939 60.3131C25.119 60.2231 25.344 60.1511 25.614 60.0971C25.884 60.0431 26.208 60.0161 26.577 60.0161L26.586 60.0071ZM27.198 61.6541C27.099 61.6541 27.018 61.6721 26.955 61.7171C26.892 61.7621 26.829 61.8071 26.793 61.8701C26.748 61.9241 26.721 61.9871 26.703 62.0501C26.685 62.1131 26.676 62.1671 26.676 62.2121C26.676 62.4281 26.712 62.5991 26.775 62.7071C26.838 62.8241 26.946 62.8781 27.099 62.8781C27.171 62.8781 27.243 62.8601 27.333 62.8331C27.414 62.8061 27.495 62.7611 27.558 62.7071C27.621 62.6531 27.684 62.5811 27.729 62.4911C27.774 62.4011 27.792 62.3021 27.792 62.1851C27.792 62.1131 27.774 62.0501 27.738 61.9871C27.702 61.9241 27.657 61.8701 27.603 61.8251C27.549 61.7801 27.477 61.7351 27.414 61.7081C27.342 61.6811 27.27 61.6631 27.207 61.6631L27.198 61.6541ZM26.721 64.5521C26.721 64.6961 26.739 64.8041 26.775 64.8761C26.811 64.9391 26.856 64.9751 26.901 64.9751C26.955 64.9751 27.036 64.9751 27.126 64.9661C27.216 64.9661 27.306 64.9481 27.387 64.9211C27.477 64.8941 27.549 64.8581 27.612 64.8131C27.675 64.7681 27.702 64.7051 27.702 64.6241C27.702 64.5251 27.675 64.4351 27.612 64.3721C27.558 64.3091 27.486 64.2551 27.405 64.2191C27.324 64.1831 27.243 64.1561 27.144 64.1381C27.045 64.1201 26.964 64.1201 26.892 64.1201C26.82 64.1201 26.766 64.1381 26.757 64.1831C26.739 64.2281 26.73 64.3451 26.721 64.5521Z" fill="#3B99FF"/>
<path d="M34.6231 66.253C34.6231 66.181 34.6051 66.136 34.5781 66.1C34.5421 66.064 34.5061 66.055 34.4521 66.055C34.3801 66.055 34.2901 66.109 34.1911 66.226C34.0831 66.343 33.9481 66.46 33.7861 66.604C33.6241 66.748 33.4261 66.865 33.1921 66.982C32.9581 67.099 32.6791 67.153 32.3641 67.153C32.1121 67.153 31.8871 67.126 31.6801 67.072C31.4731 67.018 31.2931 66.928 31.1401 66.793C30.9871 66.658 30.8701 66.487 30.7891 66.262C30.7081 66.046 30.6631 65.767 30.6631 65.443C30.6631 65.227 30.6991 65.029 30.7711 64.849C30.8431 64.669 30.9421 64.507 31.0681 64.363C31.1941 64.219 31.3381 64.084 31.5001 63.958C31.6621 63.841 31.8421 63.724 32.0311 63.625C32.2201 63.526 32.4451 63.436 32.7241 63.373C33.0031 63.31 33.2731 63.238 33.5431 63.175C33.8131 63.112 34.0381 63.04 34.2271 62.977C34.4161 62.905 34.5061 62.815 34.5061 62.707C34.5061 62.653 34.4881 62.599 34.4521 62.554C34.4161 62.509 34.3621 62.473 34.3081 62.446C34.2541 62.419 34.1911 62.401 34.1281 62.392C34.0651 62.383 34.0021 62.374 33.9571 62.374C33.7681 62.374 33.5881 62.401 33.4171 62.464C33.2461 62.518 33.0751 62.581 32.9041 62.653C32.7331 62.716 32.5621 62.779 32.3911 62.842C32.2201 62.896 32.0401 62.932 31.8601 62.932C31.5451 62.932 31.3201 62.86 31.1761 62.725C31.0321 62.59 30.9601 62.347 30.9601 61.996C30.9601 61.798 31.0141 61.627 31.1221 61.474C31.2301 61.321 31.3741 61.195 31.5631 61.078C31.7431 60.961 31.9501 60.862 32.1751 60.781C32.4001 60.7 32.6341 60.637 32.8681 60.592C33.1021 60.547 33.3271 60.511 33.5521 60.484C33.7771 60.466 33.9751 60.448 34.1371 60.448C34.6591 60.448 35.1001 60.502 35.4601 60.61C35.8201 60.718 36.1081 60.862 36.3241 61.042C36.5401 61.222 36.7021 61.429 36.7921 61.663C36.8911 61.897 36.9361 62.14 36.9361 62.401C36.9361 62.662 36.9091 62.869 36.8641 63.076C36.8191 63.283 36.7651 63.472 36.7021 63.652C36.6481 63.823 36.5941 63.976 36.5401 64.12C36.4951 64.255 36.4681 64.381 36.4681 64.48C36.4681 64.615 36.5041 64.741 36.5671 64.849C36.6301 64.957 36.7021 65.074 36.7741 65.191C36.8461 65.308 36.9181 65.443 36.9811 65.578C37.0441 65.722 37.0801 65.884 37.0801 66.082C37.0801 66.487 36.9541 66.811 36.7111 67.063C36.4681 67.315 36.1171 67.441 35.6581 67.441C35.5051 67.441 35.3611 67.432 35.2171 67.405C35.0731 67.378 34.9561 67.342 34.8481 67.297C34.7401 67.252 34.6591 67.189 34.5961 67.117C34.5331 67.045 34.4971 66.973 34.4971 66.883C34.4971 66.748 34.5151 66.631 34.5601 66.541C34.6051 66.451 34.6231 66.361 34.6231 66.289V66.253ZM34.2991 64.444C34.2631 64.282 34.1911 64.192 34.0741 64.165C33.9571 64.138 33.8311 64.138 33.6961 64.165C33.6151 64.183 33.5251 64.21 33.4351 64.246C33.3451 64.282 33.2641 64.318 33.1921 64.372C33.1201 64.426 33.0661 64.489 33.0301 64.57C32.9941 64.651 32.9851 64.732 33.0031 64.84C33.0121 64.903 33.0481 64.948 33.1021 64.984C33.1561 65.02 33.2191 65.038 33.2821 65.047C33.3451 65.056 33.4171 65.056 33.4891 65.047C33.5611 65.047 33.6151 65.038 33.6601 65.029C33.7231 65.02 33.7951 64.993 33.8761 64.966C33.9571 64.93 34.0291 64.894 34.1011 64.849C34.1731 64.804 34.2271 64.741 34.2631 64.678C34.3081 64.615 34.3171 64.534 34.2991 64.453V64.444Z" fill="#3B99FF"/>
<path d="M39.8969 65.281C39.8969 65.281 39.8969 65.344 39.8969 65.371C39.8969 65.398 39.8969 65.425 39.8969 65.461C39.8969 65.533 39.8969 65.605 39.9149 65.668C39.9239 65.731 39.9329 65.785 39.9509 65.848C39.9689 65.902 39.9779 65.965 39.9869 66.028C39.9959 66.091 40.0049 66.154 40.0049 66.235C40.0049 66.406 39.9689 66.55 39.8969 66.667C39.8249 66.775 39.7259 66.865 39.5999 66.937C39.4739 67 39.3209 67.054 39.1319 67.081C38.9519 67.108 38.7449 67.126 38.5199 67.126H38.3759C37.9889 67.126 37.7099 67.018 37.5479 66.802C37.3859 66.586 37.3049 66.289 37.3049 65.929C37.3049 65.668 37.3319 65.407 37.3949 65.146C37.4489 64.894 37.5209 64.642 37.5839 64.39C37.6559 64.147 37.7189 63.904 37.7729 63.661C37.8269 63.418 37.8629 63.184 37.8629 62.959C37.8629 62.797 37.8359 62.608 37.7819 62.419C37.7279 62.23 37.6649 62.023 37.6019 61.825C37.5389 61.627 37.4759 61.429 37.4219 61.24C37.3679 61.051 37.3409 60.871 37.3409 60.7C37.3409 60.556 37.3679 60.412 37.4309 60.25C37.4939 60.088 37.5749 59.944 37.6829 59.8C37.7909 59.665 37.9079 59.548 38.0519 59.458C38.1959 59.368 38.3399 59.323 38.4929 59.323C38.6999 59.323 38.8889 59.341 39.0779 59.368C39.2669 59.395 39.4289 59.449 39.5639 59.539C39.7079 59.62 39.8159 59.737 39.8969 59.89C39.9779 60.043 40.0229 60.241 40.0229 60.493C40.0229 60.628 40.0229 60.781 40.0049 60.952C39.9959 61.123 39.9779 61.294 39.9689 61.474C39.9599 61.654 39.9419 61.825 39.9329 61.996C39.9239 62.167 39.9149 62.311 39.9149 62.446C39.9149 62.482 39.9149 62.518 39.9149 62.572C39.9149 62.626 39.9239 62.68 39.9329 62.734C39.9419 62.788 39.9599 62.833 39.9869 62.869C40.0139 62.905 40.0499 62.923 40.0949 62.923C40.2029 62.923 40.3199 62.86 40.4549 62.743C40.5809 62.626 40.7069 62.482 40.8329 62.338C40.9499 62.185 41.0669 62.041 41.1749 61.897C41.2829 61.753 41.3729 61.663 41.4359 61.627C41.5259 61.573 41.6159 61.537 41.7149 61.519C41.8139 61.501 41.9129 61.492 42.0209 61.492C42.3629 61.492 42.6419 61.6 42.8309 61.807C43.0199 62.014 43.1279 62.293 43.1279 62.644C43.1279 62.878 43.0829 63.103 42.9929 63.31C42.9029 63.517 42.7859 63.697 42.6239 63.85C42.4709 64.003 42.2909 64.129 42.0839 64.219C41.8769 64.309 41.6609 64.363 41.4269 64.39C41.4809 64.543 41.5619 64.66 41.6699 64.723C41.7779 64.795 41.9039 64.849 42.0479 64.885C42.1919 64.921 42.3359 64.957 42.4889 64.984C42.6419 65.011 42.7769 65.065 42.9029 65.137C43.0289 65.209 43.1279 65.317 43.2089 65.461C43.2899 65.605 43.3259 65.803 43.3259 66.064C43.3259 66.208 43.2899 66.361 43.2179 66.505C43.1459 66.649 43.0469 66.775 42.9299 66.892C42.8129 67.009 42.6779 67.099 42.5249 67.18C42.3719 67.252 42.2099 67.288 42.0569 67.288H41.9579C41.9579 67.288 41.8859 67.288 41.8589 67.288C41.5439 67.243 41.3099 67.162 41.1479 67.045C40.9859 66.928 40.8689 66.802 40.7969 66.658C40.7249 66.514 40.6799 66.361 40.6529 66.199C40.6349 66.037 40.6169 65.893 40.5899 65.758C40.5719 65.623 40.5269 65.515 40.4639 65.434C40.4009 65.353 40.2839 65.308 40.1219 65.308H39.8879L39.8969 65.281Z" fill="#3B99FF"/>
<path d="M43.5688 64.012C43.5688 63.49 43.6408 63.022 43.7848 62.608C43.9288 62.194 44.1268 61.843 44.3878 61.555C44.6398 61.267 44.9458 61.042 45.2968 60.889C45.6478 60.736 46.0258 60.655 46.4308 60.655C46.8358 60.655 47.1868 60.718 47.5198 60.853C47.8528 60.988 48.1318 61.15 48.3658 61.366C48.6088 61.573 48.7888 61.807 48.9238 62.068C49.0588 62.329 49.1218 62.59 49.1218 62.842C49.1218 63.139 49.0588 63.391 48.9418 63.58C48.8248 63.769 48.6628 63.922 48.4738 64.03C48.2848 64.138 48.0688 64.21 47.8438 64.255C47.6098 64.3 47.3938 64.318 47.1688 64.318C47.0338 64.318 46.9168 64.3 46.8088 64.264C46.7008 64.228 46.6018 64.192 46.5118 64.156C46.4218 64.12 46.3318 64.093 46.2418 64.084C46.1518 64.075 46.0798 64.084 45.9898 64.138C45.8998 64.192 45.8548 64.264 45.8548 64.372C45.8548 64.777 46.2238 64.975 46.9708 64.975C47.0158 64.975 47.0698 64.975 47.1418 64.975C47.2048 64.975 47.2588 64.975 47.2858 64.975C47.4748 64.975 47.6638 64.939 47.8348 64.876C48.0058 64.822 48.1678 64.759 48.3208 64.696C48.4738 64.633 48.6088 64.57 48.7438 64.516C48.8788 64.462 49.0048 64.435 49.1218 64.435C49.2298 64.435 49.3378 64.471 49.4278 64.534C49.5178 64.597 49.6078 64.687 49.6798 64.795C49.7518 64.903 49.8058 65.02 49.8508 65.146C49.8868 65.272 49.9138 65.398 49.9138 65.533C49.9138 65.767 49.8418 65.983 49.6978 66.19C49.5538 66.397 49.3558 66.568 49.0948 66.721C48.8428 66.865 48.5368 66.982 48.1948 67.072C47.8528 67.162 47.4838 67.198 47.0878 67.198C46.5298 67.198 46.0078 67.117 45.5128 66.955C45.0178 66.793 44.6308 66.568 44.3428 66.28C44.0908 66.037 43.9018 65.722 43.7668 65.326C43.6318 64.93 43.5688 64.498 43.5688 64.012ZM45.8728 62.5C45.8728 62.626 45.9358 62.743 46.0528 62.833C46.1698 62.932 46.3228 62.977 46.4848 62.977C46.5748 62.977 46.6558 62.959 46.7368 62.932C46.8178 62.905 46.8898 62.869 46.9618 62.824C47.0248 62.779 47.0788 62.725 47.1238 62.671C47.1598 62.617 47.1778 62.554 47.1778 62.491C47.1778 62.383 47.1148 62.293 46.9888 62.212C46.8628 62.131 46.7008 62.095 46.5118 62.095C46.3228 62.095 46.1698 62.131 46.0528 62.203C45.9358 62.275 45.8818 62.374 45.8818 62.5H45.8728Z" fill="#3B99FF"/>
<path d="M52.686 62.0861C52.686 61.6271 52.821 61.2851 53.082 61.0601C53.343 60.8351 53.703 60.7271 54.144 60.7271C54.333 60.7271 54.504 60.7721 54.657 60.8531C54.81 60.9431 54.945 61.0511 55.053 61.1861C55.161 61.3211 55.242 61.4741 55.305 61.6451C55.368 61.8161 55.395 61.9871 55.395 62.1671C55.395 62.3201 55.377 62.4731 55.341 62.6171C55.305 62.7611 55.26 62.9051 55.215 63.0491C55.17 63.1931 55.125 63.3371 55.089 63.4901C55.053 63.6431 55.035 63.7871 55.035 63.9401C55.035 64.0481 55.053 64.1651 55.089 64.2821C55.125 64.3991 55.179 64.5071 55.251 64.6061C55.323 64.7051 55.413 64.7861 55.521 64.8491C55.629 64.9121 55.746 64.9481 55.89 64.9481C56.052 64.9481 56.187 64.9031 56.295 64.8221C56.403 64.7321 56.502 64.6331 56.574 64.5071C56.646 64.3811 56.7 64.2461 56.736 64.1021C56.772 63.9581 56.781 63.8231 56.781 63.7061C56.781 63.5621 56.772 63.4091 56.745 63.2651C56.718 63.1211 56.691 62.9681 56.655 62.8241C56.619 62.6801 56.592 62.5361 56.565 62.3921C56.538 62.2481 56.529 62.1041 56.529 61.9511C56.529 61.7441 56.565 61.5551 56.646 61.3751C56.727 61.1951 56.835 61.0421 56.97 60.9071C57.105 60.7721 57.258 60.6641 57.438 60.5921C57.618 60.5111 57.807 60.4751 58.005 60.4751C58.23 60.4751 58.419 60.5201 58.59 60.6011C58.752 60.6911 58.887 60.7991 58.995 60.9431C59.103 61.0871 59.184 61.2491 59.238 61.4381C59.292 61.6271 59.319 61.8161 59.319 62.0231C59.319 62.2931 59.283 62.5541 59.22 62.8061C59.157 63.0581 59.121 63.3191 59.121 63.5801C59.121 63.7331 59.139 63.8861 59.175 64.0391C59.211 64.1921 59.247 64.3361 59.292 64.4891C59.337 64.6331 59.373 64.7861 59.409 64.9301C59.445 65.0741 59.463 65.2271 59.463 65.3801C59.463 65.7041 59.427 66.0011 59.346 66.2531C59.274 66.5141 59.166 66.7301 59.022 66.9011C58.878 67.0721 58.725 67.2161 58.536 67.3061C58.347 67.3961 58.149 67.4501 57.942 67.4501C57.762 67.4501 57.618 67.4321 57.51 67.3961C57.402 67.3601 57.312 67.3061 57.258 67.2521C57.195 67.1891 57.15 67.1261 57.114 67.0631C57.078 67.0001 57.051 66.9281 57.024 66.8741C56.997 66.8111 56.961 66.7661 56.925 66.7211C56.889 66.6851 56.826 66.6671 56.754 66.6671C56.673 66.6671 56.592 66.7031 56.511 66.7751C56.43 66.8471 56.34 66.9281 56.214 67.0181C56.088 67.1081 55.935 67.1801 55.746 67.2611C55.548 67.3331 55.296 67.3691 54.972 67.3691C54.27 67.3691 53.73 67.1981 53.352 66.8471C52.974 66.4961 52.776 65.9651 52.776 65.2541C52.776 64.9661 52.794 64.6871 52.839 64.4081C52.884 64.1291 52.902 63.8591 52.902 63.5711C52.902 63.4451 52.893 63.3191 52.866 63.2021C52.848 63.0851 52.821 62.9681 52.794 62.8421C52.767 62.7251 52.74 62.5991 52.713 62.4821C52.686 62.3651 52.677 62.2391 52.677 62.1221L52.686 62.0861Z" fill="#3B99FF"/>
<path d="M62.1448 60.4929C62.6218 60.4929 63.0718 60.5739 63.5128 60.7449C63.9448 60.9069 64.3318 61.1319 64.6738 61.4109C65.0068 61.6899 65.2768 62.0049 65.4838 62.3649C65.6908 62.7249 65.7898 63.0939 65.7898 63.4899C65.7898 63.7509 65.7448 64.0119 65.6548 64.2549C65.5648 64.4979 65.4388 64.7229 65.2768 64.9119C65.1238 65.1009 64.9438 65.2539 64.7368 65.3709C64.5388 65.4879 64.3318 65.5419 64.1158 65.5419C64.0168 65.5419 63.9088 65.5329 63.8098 65.5059C63.7108 65.4789 63.6118 65.4519 63.5218 65.4249C63.4318 65.3979 63.3418 65.3709 63.2518 65.3439C63.1618 65.3169 63.0718 65.3079 62.9818 65.3079C62.8558 65.3079 62.7478 65.3349 62.6758 65.3979C62.6038 65.4609 62.5588 65.5329 62.5588 65.6409C62.5588 65.7039 62.5678 65.7669 62.5948 65.8119C62.6218 65.8659 62.6488 65.9199 62.6848 65.9919C62.7208 66.0549 62.7478 66.1359 62.7748 66.2259C62.8018 66.3159 62.8108 66.4329 62.8108 66.5859C62.8108 66.8199 62.7748 67.0269 62.7028 67.2249C62.6308 67.4229 62.5228 67.5849 62.3878 67.7199C62.2528 67.8549 62.0908 67.9629 61.9108 68.0439C61.7308 68.1249 61.5238 68.1609 61.2988 68.1609C61.0918 68.1609 60.9028 68.1249 60.7408 68.0529C60.5788 67.9809 60.4258 67.8819 60.2998 67.7559C60.1738 67.6299 60.0748 67.4859 60.0118 67.3059C59.9488 67.1349 59.9128 66.9369 59.9128 66.7299C59.9128 66.5589 59.9308 66.3879 59.9758 66.2079C60.0208 66.0369 60.0658 65.8659 60.1108 65.6859C60.1558 65.5059 60.2008 65.3439 60.2368 65.1729C60.2728 65.0019 60.2908 64.8399 60.2908 64.6779C60.2908 64.4799 60.2638 64.2999 60.2008 64.1469C60.1378 63.9939 60.0748 63.8409 60.0028 63.6879C59.9308 63.5349 59.8678 63.3729 59.8048 63.1929C59.7418 63.0129 59.7148 62.8149 59.7148 62.5719C59.7148 62.2659 59.7778 61.9779 59.8948 61.7259C60.0118 61.4739 60.1828 61.2489 60.3988 61.0689C60.6148 60.8889 60.8668 60.7449 61.1638 60.6459C61.4608 60.5469 61.7938 60.4929 62.1628 60.4929H62.1448ZM62.6128 63.5619C62.6938 63.5619 62.7658 63.5439 62.8288 63.4989C62.8918 63.4539 62.9548 63.3999 63.0088 63.3279C63.0628 63.2559 63.1078 63.1749 63.1348 63.0849C63.1708 62.9949 63.1798 62.8959 63.1798 62.7969C63.1798 62.6529 63.1438 62.5269 63.0808 62.4189C63.0178 62.3199 62.9278 62.2659 62.8288 62.2659C62.7658 62.2659 62.7028 62.2929 62.6398 62.3379C62.5768 62.3829 62.5138 62.4459 62.4688 62.5269C62.4148 62.6079 62.3788 62.6979 62.3518 62.7969C62.3248 62.8959 62.3068 63.0039 62.3068 63.1119C62.3068 63.3999 62.4058 63.5439 62.6128 63.5439V63.5619Z" fill="#3B99FF"/>
<path d="M45.1889 22.009C41.5889 22.009 38.0879 22.459 34.8119 22.855C31.1399 23.296 27.6749 23.953 24.5969 24.799C20.8169 25.843 17.7209 27.562 15.1739 29.083C11.3939 31.351 8.9729 33.925 8.9729 36.85C8.9729 39.775 11.4749 42.214 15.2549 44.482C17.7929 46.012 20.9159 47.488 24.6959 48.532C27.7739 49.378 31.1849 49.99 34.8569 50.422C38.1329 50.809 41.5889 50.584 45.1889 50.584C48.7889 50.584 52.2449 50.836 55.5209 50.449C59.1929 50.008 62.8199 50.17 65.8979 49.324C69.6779 48.28 72.7649 46.318 75.3029 44.788C79.0829 42.52 80.9729 39.775 80.9729 36.85C80.9729 33.925 79.0019 31.315 75.2219 29.038C72.6839 27.508 69.4709 26.14 65.6909 25.096C62.6129 24.25 59.1209 24.196 55.4489 23.764C52.1729 23.377 48.7799 22 45.1799 22L45.1889 22.009ZM32.4359 42.745C26.6939 38.794 25.3619 38.893 23.8319 32.089C22.8689 27.796 29.1509 30.928 31.0859 34.906C33.0209 38.884 35.9549 45.157 32.4359 42.745ZM48.4559 42.745C42.7139 38.794 41.3819 38.893 39.8519 32.089C38.8889 27.796 45.1709 30.928 47.1059 34.906C49.0409 38.884 51.9749 45.157 48.4559 42.745ZM64.4759 42.745C58.7339 38.794 57.4019 38.893 55.8719 32.089C54.9089 27.796 61.1909 30.928 63.1259 34.906C65.0609 38.884 67.9949 45.157 64.4759 42.745Z" fill="#3B99FF"/>
</svg>
