<svg width="22" height="22" viewBox="0 0 22 22" fill="none" xmlns="http://www.w3.org/2000/svg">
<path d="M7.02005 1.80005H14.58C17.46 1.80005 19.8 4.14005 19.8 7.02005V14.58C19.8 15.9645 19.2501 17.2922 18.2711 18.2711C17.2922 19.2501 15.9645 19.8 14.58 19.8H7.02005C4.14005 19.8 1.80005 17.46 1.80005 14.58V7.02005C1.80005 5.63562 2.35001 4.30789 3.32895 3.32895C4.30789 2.35001 5.63562 1.80005 7.02005 1.80005ZM6.84005 3.60005C5.98075 3.60005 5.15664 3.9414 4.54902 4.54902C3.9414 5.15664 3.60005 5.98075 3.60005 6.84005V14.76C3.60005 16.551 5.04905 18 6.84005 18H14.76C15.6193 18 16.4435 17.6587 17.0511 17.0511C17.6587 16.4435 18 15.6193 18 14.76V6.84005C18 5.04905 16.551 3.60005 14.76 3.60005H6.84005ZM15.525 4.95005C15.8234 4.95005 16.1096 5.06857 16.3205 5.27955C16.5315 5.49053 16.65 5.77668 16.65 6.07505C16.65 6.37342 16.5315 6.65956 16.3205 6.87054C16.1096 7.08152 15.8234 7.20005 15.525 7.20005C15.2267 7.20005 14.9405 7.08152 14.7296 6.87054C14.5186 6.65956 14.4 6.37342 14.4 6.07505C14.4 5.77668 14.5186 5.49053 14.7296 5.27955C14.9405 5.06857 15.2267 4.95005 15.525 4.95005ZM10.8 6.30005C11.9935 6.30005 13.1381 6.77415 13.982 7.61807C14.8259 8.46198 15.3 9.60657 15.3 10.8C15.3 11.9935 14.8259 13.1381 13.982 13.982C13.1381 14.8259 11.9935 15.3 10.8 15.3C9.60657 15.3 8.46198 14.8259 7.61807 13.982C6.77415 13.1381 6.30005 11.9935 6.30005 10.8C6.30005 9.60657 6.77415 8.46198 7.61807 7.61807C8.46198 6.77415 9.60657 6.30005 10.8 6.30005ZM10.8 8.10005C10.084 8.10005 9.39721 8.38451 8.89086 8.89086C8.38451 9.39721 8.10005 10.084 8.10005 10.8C8.10005 11.5161 8.38451 12.2029 8.89086 12.7092C9.39721 13.2156 10.084 13.5 10.8 13.5C11.5161 13.5 12.2029 13.2156 12.7092 12.7092C13.2156 12.2029 13.5 11.5161 13.5 10.8C13.5 10.084 13.2156 9.39721 12.7092 8.89086C12.2029 8.38451 11.5161 8.10005 10.8 8.10005Z" fill="#3888DD"/>
</svg>
