<svg width="22" height="22" viewBox="0 0 22 22" fill="none" xmlns="http://www.w3.org/2000/svg">
<path d="M9.00005 13.5L13.671 10.8L9.00005 8.1V13.5ZM19.404 6.453C19.521 6.876 19.602 7.443 19.656 8.163C19.719 8.883 19.746 9.504 19.746 10.044L19.8 10.8C19.8 12.771 19.656 14.22 19.404 15.147C19.179 15.957 18.657 16.479 17.847 16.704C17.424 16.821 16.65 16.902 15.462 16.956C14.292 17.019 13.221 17.046 12.231 17.046L10.8 17.1C7.02905 17.1 4.68005 16.956 3.75305 16.704C2.94305 16.479 2.42105 15.957 2.19605 15.147C2.07905 14.724 1.99805 14.157 1.94405 13.437C1.88105 12.717 1.85405 12.096 1.85405 11.556L1.80005 10.8C1.80005 8.829 1.94405 7.38 2.19605 6.453C2.42105 5.643 2.94305 5.121 3.75305 4.896C4.17605 4.779 4.95005 4.698 6.13805 4.644C7.30805 4.581 8.37905 4.554 9.36905 4.554L10.8 4.5C14.571 4.5 16.92 4.644 17.847 4.896C18.657 5.121 19.179 5.643 19.404 6.453Z" fill="#3888DD"/>
</svg>
